<svg xmlns="http://www.w3.org/2000/svg" xmlns:xlink="http://www.w3.org/1999/xlink" viewBox="0 0 214.73 206.93"><defs><style>.cls-1,.cls-4,.cls-7{fill:none;}.cls-2{clip-path:url(#clip-path);}.cls-3{fill:#4f2984;}.cls-4,.cls-7{stroke:#fff;stroke-width:4px;}.cls-4{stroke-miterlimit:10;}.cls-5{font-size:5.86px;font-family:Arial-BoldMT, Arial;font-weight:700;}.cls-5,.cls-6{fill:#fff;}</style><clipPath id="clip-path" transform="translate(0 0)"><rect class="cls-1" width="214.73" height="206.93"/></clipPath></defs><g id="Layer_2" data-name="Layer 2"><g id="Layer_1-2" data-name="Layer 1"><g class="cls-2"><path class="cls-3" d="M199.05,53.41c28.66,48.73,10.83,110.65-39.8,138.29S44.33,202.25,15.68,153.52,4.85,42.87,55.49,15.23,170.4,4.68,199.05,53.41" transform="translate(0 0)"/><ellipse class="cls-4" cx="107.37" cy="103.46" rx="105.35" ry="101.45" transform="translate(-1.51 1.59) rotate(-0.84)"/><text class="cls-5" transform="translate(158.8 89.16) scale(1.04 1)">EMOTIONA</text><text class="cls-5" transform="translate(191.57 89.16) scale(1.04 1)">L</text><path class="cls-6" d="M177,64.74a1.63,1.63,0,1,1-1.69,1.63A1.66,1.66,0,0,1,177,64.74" transform="translate(0 0)"/><path class="cls-6" d="M184.59,74.51V72.88a6.12,6.12,0,0,1-4.73-2.18l-1.13-1.3a1.69,1.69,0,0,0-1.29-.59h-.89a1.67,1.67,0,0,0-1.29.59l-1.13,1.3a6.15,6.15,0,0,1-4.74,2.18v1.63a7.82,7.82,0,0,0,5.91-2.65v1.83L172,75a1.45,1.45,0,0,0,.57,2.81h1.87v-.41a2.07,2.07,0,0,1,2.11-2h2.53a.41.41,0,1,1,0,.81h-2.53a1.25,1.25,0,0,0-1.27,1.22v.41h6.09a1.49,1.49,0,0,0,1.51-1.46A1.46,1.46,0,0,0,182,75l-3.27-1.26V71.86a7.82,7.82,0,0,0,5.91,2.65" transform="translate(0 0)"/><text class="cls-5" transform="translate(191.97 139.42) scale(1.04 1)">TA</text><text class="cls-5" transform="translate(150.75 139.42) scale(1.04 1)">ENVIRONMEN</text><text class="cls-5" transform="translate(199.62 139.42) scale(1.04 1)">L</text><path class="cls-6" d="M177,113a1.63,1.63,0,1,1-1.69,1.63A1.66,1.66,0,0,1,177,113" transform="translate(0 0)"/><path class="cls-6" d="M184.59,122.76v-1.63a6.12,6.12,0,0,1-4.73-2.18l-1.13-1.3a1.71,1.71,0,0,0-1.29-.58h-.89a1.7,1.7,0,0,0-1.29.58l-1.13,1.3a6.15,6.15,0,0,1-4.74,2.18v1.63a7.81,7.81,0,0,0,5.91-2.64V122L172,123.21a1.47,1.47,0,0,0-.94,1.35,1.49,1.49,0,0,0,1.51,1.46h1.86v-.41a2.09,2.09,0,0,1,2.12-2h2.53a.41.41,0,1,1,0,.82h-2.53a1.24,1.24,0,0,0-1.27,1.22V126h6.09a1.49,1.49,0,0,0,1.51-1.46,1.46,1.46,0,0,0-1-1.35L178.68,122v-1.83a7.81,7.81,0,0,0,5.91,2.64" transform="translate(0 0)"/><path class="cls-6" d="M25.55,113.25a1.63,1.63,0,1,1-1.69,1.63,1.66,1.66,0,0,1,1.69-1.63" transform="translate(0 0)"/><text class="cls-5" transform="translate(23.9 139.42) scale(1.04 1)">SOCIAL</text><path class="cls-6" d="M33.15,123v-1.63a6.12,6.12,0,0,1-4.73-2.18l-1.13-1.3a1.7,1.7,0,0,0-1.29-.58h-.89a1.7,1.7,0,0,0-1.29.58l-1.13,1.3A6.15,6.15,0,0,1,18,121.38V123a7.81,7.81,0,0,0,5.91-2.64v1.83l-3.28,1.26a1.46,1.46,0,0,0-.94,1.35,1.48,1.48,0,0,0,1.51,1.45H23v-.4a2.07,2.07,0,0,1,2.11-2h2.53a.41.41,0,1,1,0,.82H25.13a1.24,1.24,0,0,0-1.27,1.22v.4H30a1.48,1.48,0,0,0,1.51-1.45,1.46,1.46,0,0,0-.94-1.35l-3.28-1.26v-1.83A7.81,7.81,0,0,0,33.15,123" transform="translate(0 0)"/><path class="cls-6" d="M47.65,113.66l-5.07,1.83v3.71a6.92,6.92,0,0,0,5.07,6.66,6.92,6.92,0,0,0,5.07-6.66v-3.71Zm-.95,6.71H45.12v-1.83H46.7V117h1.9v1.53h1.58v1.83H48.6v1.52H46.7Z" transform="translate(0 0)"/><text class="cls-5" transform="translate(20.02 89.16) scale(1.04 1)">PHYSICA</text><text class="cls-5" transform="translate(47.04 89.16) scale(1.04 1)">L</text><path class="cls-6" d="M25.55,64.74a1.63,1.63,0,1,1-1.69,1.63,1.66,1.66,0,0,1,1.69-1.63" transform="translate(0 0)"/><path class="cls-6" d="M33.15,74.51V72.88a6.12,6.12,0,0,1-4.73-2.18l-1.13-1.3A1.67,1.67,0,0,0,26,68.81h-.89a1.67,1.67,0,0,0-1.29.59l-1.13,1.3A6.15,6.15,0,0,1,18,72.88v1.63a7.82,7.82,0,0,0,5.91-2.65v1.83L20.58,75a1.45,1.45,0,0,0,.57,2.81H23v-.41a2.07,2.07,0,0,1,2.11-2h2.53a.41.41,0,1,1,0,.81H25.13a1.25,1.25,0,0,0-1.27,1.22v.41H30A1.45,1.45,0,0,0,30.52,75l-3.28-1.26V71.86a7.82,7.82,0,0,0,5.91,2.65" transform="translate(0 0)"/><path class="cls-6" d="M47.65,65.15,42.58,67V70.7a6.91,6.91,0,0,0,5.07,6.65,6.91,6.91,0,0,0,5.07-6.65V67Zm-.95,6.71H45.12V70H46.7V68.51h1.9V70h1.58v1.83H48.6v1.53H46.7Z" transform="translate(0 0)"/></g><line class="cls-4" x1="35.67" y1="176.63" x2="182.61" y2="32.82"/><g class="cls-2"><line class="cls-4" x1="1.34" y1="102.24" x2="213.23" y2="105.97"/></g><line class="cls-4" x1="32.49" y1="30.93" x2="181.63" y2="174.16"/><g class="cls-2"><text class="cls-5" transform="translate(82.96 46.26) scale(1.04 1)">AL</text><text class="cls-5" transform="translate(66.19 46.26) scale(1.04 1)">MENT</text><path class="cls-6" d="M68.79,22.2a1.63,1.63,0,1,1-1.69,1.62,1.65,1.65,0,0,1,1.69-1.62" transform="translate(0 0)"/><path class="cls-6" d="M76.39,32V30.33a6.12,6.12,0,0,1-4.73-2.18l-1.13-1.3a1.71,1.71,0,0,0-1.29-.59h-.89a1.71,1.71,0,0,0-1.29.59l-1.13,1.3a6.15,6.15,0,0,1-4.74,2.18V32a7.78,7.78,0,0,0,5.91-2.65v1.83L63.83,32.4a1.47,1.47,0,0,0-.95,1.36,1.48,1.48,0,0,0,1.51,1.45h1.87V34.8a2.07,2.07,0,0,1,2.11-2H70.9a.41.41,0,0,1,.42.41.4.4,0,0,1-.42.4H68.37A1.25,1.25,0,0,0,67.1,34.8v.41h6.09a1.45,1.45,0,0,0,.57-2.81l-3.28-1.26V29.31A7.78,7.78,0,0,0,76.39,32" transform="translate(0 0)"/><path class="cls-6" d="M90.89,22.6l-5.07,1.83v3.72a6.91,6.91,0,0,0,5.07,6.65A6.91,6.91,0,0,0,96,28.15V24.43Zm-1,6.71H88.36V27.48h1.58V26h1.9v1.52h1.58v1.83H91.84v1.53h-1.9Z" transform="translate(0 0)"/><text class="cls-5" transform="translate(131.1 46.26) scale(1.04 1)">PA</text><text class="cls-5" transform="translate(157.56 46.26) scale(1.04 1)">L</text><text class="cls-5" transform="translate(113.2 46.26) scale(1.04 1)">OCCU</text><text class="cls-5" transform="translate(138.64 46.26) scale(1.04 1)">TIONA</text><path class="cls-6" d="M137.18,22.2a1.63,1.63,0,1,1-1.69,1.62,1.65,1.65,0,0,1,1.69-1.62" transform="translate(0 0)"/><path class="cls-6" d="M144.78,32V30.33a6.12,6.12,0,0,1-4.73-2.18l-1.13-1.3a1.71,1.71,0,0,0-1.29-.59h-.89a1.71,1.71,0,0,0-1.29.59l-1.13,1.3a6.15,6.15,0,0,1-4.74,2.18V32a7.78,7.78,0,0,0,5.91-2.65v1.83l-3.28,1.26a1.45,1.45,0,0,0,.57,2.81h1.87V34.8a2.07,2.07,0,0,1,2.11-2h2.53a.41.41,0,0,1,.42.41.4.4,0,0,1-.42.4h-2.53a1.25,1.25,0,0,0-1.27,1.22v.41h6.09a1.48,1.48,0,0,0,1.51-1.45,1.47,1.47,0,0,0-1-1.36l-3.27-1.26V29.31A7.78,7.78,0,0,0,144.78,32" transform="translate(0 0)"/><text class="cls-5" transform="translate(62.58 179.68) scale(1.04 1)">SPIRITUAL</text><path class="cls-6" d="M78.57,156.05a1.63,1.63,0,1,1-1.68,1.63,1.66,1.66,0,0,1,1.68-1.63" transform="translate(0 0)"/><path class="cls-6" d="M86.17,165.81v-1.62A6.08,6.08,0,0,1,81.45,162l-1.14-1.3a1.67,1.67,0,0,0-1.29-.59h-.88a1.69,1.69,0,0,0-1.3.59L75.71,162A6.12,6.12,0,0,1,71,164.19v1.62a7.83,7.83,0,0,0,5.92-2.64V165l-3.28,1.26a1.46,1.46,0,0,0-1,1.35,1.49,1.49,0,0,0,1.51,1.46H76v-.41a2.08,2.08,0,0,1,2.11-2h2.54a.41.41,0,1,1,0,.81H78.15a1.24,1.24,0,0,0-1.26,1.22v.41H83a1.49,1.49,0,0,0,1.52-1.46,1.46,1.46,0,0,0-.95-1.35L80.26,165v-1.83a7.82,7.82,0,0,0,5.91,2.64" transform="translate(0 0)"/><text class="cls-5" transform="translate(120.95 179.68) scale(1.04 1)">FINANCIAL</text><path class="cls-6" d="M127.49,155.62a1.63,1.63,0,1,1-1.69,1.63,1.66,1.66,0,0,1,1.69-1.63" transform="translate(0 0)"/><path class="cls-6" d="M135.09,165.38v-1.63a6.12,6.12,0,0,1-4.73-2.18l-1.13-1.3a1.7,1.7,0,0,0-1.29-.58h-.89a1.7,1.7,0,0,0-1.29.58l-1.13,1.3a6.15,6.15,0,0,1-4.74,2.18v1.63a7.81,7.81,0,0,0,5.91-2.64v1.83l-3.27,1.26a1.45,1.45,0,0,0-1,1.35,1.48,1.48,0,0,0,1.51,1.45H125v-.4a2.07,2.07,0,0,1,2.11-2h2.53a.41.41,0,1,1,0,.82h-2.53a1.24,1.24,0,0,0-1.27,1.22v.4h6.09a1.48,1.48,0,0,0,1.51-1.45,1.46,1.46,0,0,0-.94-1.35l-3.28-1.26v-1.83a7.81,7.81,0,0,0,5.91,2.64" transform="translate(0 0)"/><path class="cls-6" d="M149.59,156l-5.07,1.83v3.71a6.92,6.92,0,0,0,5.07,6.66,6.92,6.92,0,0,0,5.07-6.66v-3.71Zm-1,6.71h-1.58v-1.83h1.58v-1.53h1.9v1.53h1.58v1.83h-1.58v1.52h-1.9Z" transform="translate(0 0)"/><line class="cls-7" x1="108.58" y1="3.4" x2="109.15" y2="204.09"/></g></g></g></svg>